name Walk7.mot
datacolumns 19
datarows 25
range 1.15000000 1.17400000
endheader

                time	   L_ground_force_vx	   L_ground_force_vy	   L_ground_force_vz	   L_ground_force_px	   L_ground_force_py	   L_ground_force_pz	   R_ground_force_vx	   R_ground_force_vy	   R_ground_force_vz	   R_ground_force_px	   R_ground_force_py	   R_ground_force_pz	   L_ground_torque_x	   L_ground_torque_y	   L_ground_torque_z	   R_ground_torque_x	   R_ground_torque_y	   R_ground_torque_z	
          1.15000000	         -2.97238646	         69.45291450	         -2.24451641	         -0.16126294	          0.00000000	         -0.01230680	          0.00000000	         -0.00000001	          0.00000000	         -0.00000000	          0.00000000	         -0.00000000	          0.00000000	          0.07873959	          0.00000000	          0.00000000	          0.00000000	          0.00000000	
          1.15100000	         -3.57604510	         75.05204703	         -2.40912482	         -0.17055359	          0.00000000	         -0.01301154	          0.00000000	         -0.00000001	          0.00000000	         -0.00000000	          0.00000000	         -0.00000000	          0.00000000	          0.08962342	          0.00000000	          0.00000000	          0.00000000	          0.00000000	
          1.15200000	         -4.22103000	         80.86152102	         -2.57908000	         -0.18000321	          0.00000000	         -0.01372802	          0.00000000	         -0.00000001	          0.00000000	         -0.00000000	          0.00000000	         -0.00000000	          0.00000000	          0.10114850	          0.00000000	          0.00000000	          0.00000000	          0.00000000	
          1.15300000	         -4.90851767	         86.87688984	         -2.75417690	         -0.18958754	          0.00000000	         -0.01445439	          0.00000000	         -0.00000001	          0.00000000	         -0.00000000	          0.00000000	         -0.00000000	          0.00000000	          0.11332681	          0.00000000	          0.00000000	          0.00000000	          0.00000000	
          1.15400000	         -5.63961843	         93.09244334	         -2.93417019	         -0.19927952	          0.00000000	         -0.01518857	          0.00000000	         -0.00000001	          0.00000000	         -0.00000000	          0.00000000	         -0.00000000	          0.00000000	          0.12616877	          0.00000000	          0.00000000	          0.00000000	          0.00000000	
          1.15500000	         -6.41536564	         99.50111404	         -3.11877150	         -0.20904912	          0.00000000	         -0.01592823	          0.00000000	         -0.00000001	          0.00000000	         -0.00000000	          0.00000000	         -0.00000000	          0.00000000	          0.13968299	          0.00000000	          0.00000000	          0.00000000	          0.00000000	
          1.15600000	         -7.23670432	        106.09438012	         -3.30764666	         -0.21886320	          0.00000000	         -0.01667085	          0.00000000	         -0.00000001	          0.00000000	         -0.00000000	          0.00000000	         -0.00000000	          0.00000000	          0.15387615	          0.00000000	          0.00000000	          0.00000000	          0.00000000	
          1.15700000	         -8.10447904	        112.86217460	         -3.50041298	         -0.22868582	          0.00000000	         -0.01741367	          0.00000000	         -0.00000002	          0.00000000	         -0.00000000	          0.00000000	         -0.00000000	          0.00000000	          0.16875275	          0.00000000	          0.00000000	          0.00000000	          0.00000000	
          1.15800000	         -9.01942144	        119.79283133	         -3.69663729	         -0.23847984	          0.00000000	         -0.01815388	          0.00000000	         -0.00000002	          0.00000000	         -0.00000000	          0.00000000	         -0.00000000	          0.00000000	          0.18431508	          0.00000000	          0.00000000	          0.00000000	          0.00000000	
          1.15900000	         -9.98213718	        126.87310187	         -3.89583430	         -0.24820949	          0.00000000	         -0.01888885	          0.00000000	         -0.00000002	          0.00000000	         -0.00000000	          0.00000000	         -0.00000000	          0.00000000	          0.20056328	          0.00000000	          0.00000000	          0.00000000	          0.00000000	
          1.16000000	        -10.99309220	        134.08825452	         -4.09746436	         -0.25784191	          0.00000000	         -0.01961623	          0.00000000	         -0.00000002	         -0.00000000	         -0.00000000	          0.00000000	         -0.00000000	          0.00000000	          0.21749547	          0.00000000	          0.00000000	          0.00000000	          0.00000000	
          1.16100000	        -12.05259771	        141.42225571	         -4.30092976	         -0.26734746	          0.00000000	         -0.02033402	          0.00000000	         -0.00000002	         -0.00000000	         -0.00000000	          0.00000000	         -0.00000000	          0.00000000	          0.23510774	          0.00000000	          0.00000000	          0.00000000	          0.00000000	
          1.16200000	        -13.16079300	        148.85803644	         -4.50556984	         -0.27669953	          0.00000000	         -0.02104049	          0.00000000	         -0.00000002	         -0.00000000	         -0.00000000	          0.00000000	         -0.00000000	          0.00000000	          0.25339414	          0.00000000	          0.00000000	          0.00000000	          0.00000000	
          1.16300000	        -14.31762555	        156.37783853	         -4.71065568	         -0.28587434	          0.00000000	         -0.02173416	          0.00000000	         -0.00000002	         -0.00000000	         -0.00000000	          0.00000000	         -0.00000000	          0.00000000	          0.27234660	          0.00000000	          0.00000000	          0.00000000	          0.00000000	
          1.16400000	        -15.52282802	        163.96361971	         -4.91538561	         -0.29485083	          0.00000000	         -0.02241375	          0.00000000	         -0.00000003	         -0.00000000	         -0.00000000	          0.00000000	         -0.00000000	          0.00000000	          0.29195489	          0.00000000	          0.00000000	          0.00000000	          0.00000000	
          1.16500000	        -16.77589313	        171.59748054	         -5.11888355	         -0.30361049	          0.00000000	         -0.02307822	          0.00000000	         -0.00000003	         -0.00000000	         -0.00000000	          0.00000000	         -0.00000000	          0.00000000	          0.31220662	          0.00000000	          0.00000000	          0.00000000	          0.00000000	
          1.16600000	        -18.07604857	        179.26206652	         -5.32020172	         -0.31213719	          0.00000000	         -0.02372665	          0.00000001	         -0.00000003	         -0.00000000	         -0.00000000	          0.00000000	         -0.00000000	          0.00000000	          0.33308739	          0.00000000	          0.00000000	          0.00000000	          0.00000000	
          1.16700000	        -19.42223528	        186.94090021	         -5.51832906	         -0.32041704	          0.00000000	         -0.02435832	          0.00000001	         -0.00000003	         -0.00000000	         -0.00000000	          0.00000000	         -0.00000000	          0.00000000	          0.35458096	          0.00000000	          0.00000000	          0.00000000	          0.00000000	
          1.16800000	        -20.81309291	        194.61861192	         -5.71220546	         -0.32843830	          0.00000000	         -0.02497262	          0.00000001	         -0.00000003	         -0.00000000	         -0.00000000	          0.00000000	         -0.00000000	          0.00000000	          0.37666942	          0.00000000	          0.00000000	          0.00000000	          0.00000000	
          1.16900000	        -22.24695471	        202.28105860	         -5.90074054	         -0.33619118	          0.00000000	         -0.02556908	          0.00000001	         -0.00000004	         -0.00000000	         -0.00000000	          0.00000000	         -0.00000000	          0.00000000	          0.39933325	          0.00000000	          0.00000000	          0.00000000	          0.00000000	
          1.17000000	        -23.72185292	        209.91534121	         -6.08283533	         -0.34366776	          0.00000000	         -0.02614735	          0.00000001	         -0.00000004	         -0.00000000	         -0.00000000	          0.00000000	         -0.00000000	          0.00000000	          0.42255127	          0.00000000	          0.00000000	          0.00000000	          0.00000000	
          1.17100000	        -25.23553337	        217.50974530	         -6.25740431	         -0.35086183	          0.00000000	         -0.02670719	          0.00000001	         -0.00000004	         -0.00000000	         -0.00000000	          0.00000000	         -0.00000000	          0.00000000	          0.44630046	          0.00000000	          0.00000000	          0.00000000	          0.00000000	
          1.17200000	        -26.78547656	        225.05363600	         -6.42339614	         -0.35776879	          0.00000000	         -0.02724846	          0.00000001	         -0.00000004	         -0.00000000	         -0.00000000	          0.00000000	         -0.00000000	          0.00000000	          0.47055579	          0.00000000	          0.00000000	          0.00000000	          0.00000000	
          1.17300000	        -28.36892251	        232.53733696	         -6.57981134	         -0.36438552	          0.00000000	         -0.02777113	          0.00000001	         -0.00000004	         -0.00000000	         -0.00000000	          0.00000000	         -0.00000000	          0.00000000	          0.49529009	          0.00000000	          0.00000000	          0.00000000	          0.00000000	
          1.17400000	        -29.98289662	        239.95201669	         -6.72571619	         -0.37071025	          0.00000000	         -0.02827525	          0.00000001	         -0.00000005	         -0.00000000	         -0.00000000	          0.00000000	         -0.00000000	          0.00000000	          0.52047409	          0.00000000	          0.00000000	          0.00000000	          0.00000000	
